<?xml version="1.0" encoding="utf-8"?>
<!-- Generator: Adobe Illustrator 25.2.1, SVG Export Plug-In . SVG Version: 6.00 Build 0)  -->
<svg version="1.1" id="Layer_1" xmlns="http://www.w3.org/2000/svg" xmlns:xlink="http://www.w3.org/1999/xlink" x="0px" y="0px"
	 viewBox="0 0 175 50" style="enable-background:new 0 0 175 50;" xml:space="preserve">
<style type="text/css">
	.st0{fill:#2C372E;}
</style>
<g>
	<g>
		<g>
			<path class="st0" d="M30,23.9l6.3-6.3c0.6-0.6,1.5-0.1,1.5,0.6v12.6c0,0.8-0.9,1.2-1.5,0.6L30,25.1C29.8,24.8,29.8,24.3,30,23.9z
				"/>
			<path class="st0" d="M28.8,25.1l-6.3,6.3C21.9,32,21,31.5,21,30.8V18.2c0-0.8,0.9-1.2,1.5-0.6l6.3,6.3
				C29.2,24.3,29.2,24.8,28.8,25.1z"/>
			<path class="st0" d="M4.2,1.4v46.3c0,0.8,0.9,1.2,1.5,0.6l6.6-6.6c0.1-0.1,0.2-0.4,0.2-0.6v-33c0-0.2-0.1-0.5-0.2-0.6L5.6,0.7
				C5.1,0.2,4.2,0.6,4.2,1.4z"/>
			<path class="st0" d="M54.8,47.6V1.4c0-0.8-0.9-1.2-1.5-0.6l-6.6,6.6c-0.1,0.1-0.2,0.4-0.2,0.6V41c0,0.2,0.1,0.5,0.2,0.6l6.6,6.6
				C53.8,48.8,54.8,48.4,54.8,47.6z"/>
		</g>
	</g>
	<g>
		<g>
			<path class="st0" d="M68.4,22.2V22c0.2,0,0.5-0.1,0.7-0.2c0.2-0.1,0.4-0.2,0.6-0.4c0-0.1,0.1-0.1,0.1-0.2c0-0.1,0-0.2,0.1-0.4
				c0-0.1,0-0.4,0-0.5c0-0.1,0-0.4,0-0.5c0-0.1,0-0.4,0-0.6s0-0.5,0-0.8s0-0.6,0-0.9s0-0.6,0-0.9v-3.1c0-0.2,0-0.4,0-0.6
				c0-0.2,0-0.4,0-0.5c0-0.1,0-0.4-0.1-0.5c0-0.1-0.1-0.2-0.1-0.4c-0.1-0.1-0.4-0.4-0.6-0.4c-0.2-0.1-0.5-0.1-0.7-0.1V11H73v0.1
				c-0.2,0-0.5,0.1-0.7,0.1c-0.2,0.1-0.5,0.2-0.6,0.5c-0.1,0.1-0.1,0.4-0.1,0.7c0,0.2,0,0.5,0,0.7c0,0.2,0,0.5,0,0.7
				c0,0.2,0,0.5,0,0.7c0,0.2,0,0.5,0,0.8c0,0.2,0,0.6,0,0.8v3.6c0,0.4,0,0.6,0,0.8s0,0.5,0.1,0.6c0.1,0.1,0.4,0.4,0.6,0.4
				c0.2,0.1,0.5,0.1,0.7,0.1v0.5H68.4z"/>
			<path class="st0" d="M87,11.5c-0.2,0.1-0.4,0.4-0.6,0.7c-0.1,0.1-0.1,0.5-0.1,0.8c0,0.5,0,0.8-0.1,1.3c0,0.5,0,0.9,0,1.5
				s0,1.3,0,1.9c0,0.2,0,0.6,0,0.9s0,0.7,0,1.1s0,0.7,0,1.2c0,0.4,0,0.7,0,1.1v0.1H86c-0.1,0-0.1,0-0.2-0.1
				c-0.8-1.1-1.7-1.9-2.4-2.8c-0.7-0.8-1.4-1.7-2-2.5c-0.7-0.8-1.3-1.5-1.9-2.3c-0.6-0.7-1.3-1.5-2-2.3v6.5c0,0.5,0,0.9,0,1.4
				s0.1,0.7,0.2,0.9c0.1,0.2,0.2,0.5,0.6,0.6c0.2,0.1,0.6,0.2,0.9,0.2v0.2h-3.8V22c0.2,0,0.5-0.1,0.7-0.2c0.2-0.1,0.5-0.2,0.6-0.5
				c0.1-0.2,0.2-0.6,0.2-0.9c0-0.5,0.1-0.9,0.1-1.5c0-0.5,0-0.9,0-1.5c0-0.6,0-1.3,0-1.9c0-0.4,0-0.6,0-0.7c0-0.2,0-0.4,0-0.6
				c0-0.2,0-0.4,0-0.6c0-0.2,0-0.5,0-0.7c0-0.4-0.1-0.6-0.2-0.7c-0.1-0.2-0.2-0.4-0.4-0.5c-0.1-0.1-0.4-0.2-0.5-0.2
				c-0.2,0-0.4-0.1-0.5-0.1V11h3.2l7.3,8.6v-5.3c0-0.4,0-0.8,0-1.2c0-0.4,0-0.7-0.1-0.9c-0.1-0.2-0.2-0.5-0.6-0.7
				c-0.2-0.2-0.6-0.4-1.2-0.4V11h3.7v0.1C87.4,11.1,87.2,11.3,87,11.5z"/>
			<path class="st0" d="M101.9,22.2V22c0.5,0,0.8-0.1,1.1-0.2c0.4-0.1,0.5-0.4,0.6-0.6c0.1-0.1,0.1-0.4,0.1-0.5c0-0.2,0-0.4,0.1-0.6
				c0-0.7,0-1.3,0-2c0-0.6,0-1.3,0-1.9v-4.4c-0.4,0.7-0.7,1.4-0.9,2.1c-0.2,0.6-0.6,1.3-0.8,1.9c-0.2,0.6-0.6,1.2-0.8,1.9
				c-0.2,0.6-0.6,1.3-0.9,2.1c0,0.1-0.1,0.2-0.2,0.5c-0.1,0.2-0.2,0.5-0.2,0.7c-0.1,0.2-0.2,0.5-0.2,0.6c-0.1,0.2-0.1,0.4-0.1,0.4
				h-0.1c-0.4-0.7-0.7-1.5-0.9-2.3s-0.7-1.7-0.9-2.4c-0.4-0.7-0.6-1.3-0.8-2c-0.2-0.6-0.5-1.2-0.7-1.7c-0.2-0.5-0.4-0.8-0.6-1.2
				C95.1,12.2,95,12,95,11.8c0,0.7,0,1.3,0,1.8c0,0.5,0,1.1,0,1.5c0,0.5,0,1.1,0,1.7s0,1.2,0,2c0,0.5,0,0.9,0,1.3s0.1,0.7,0.2,0.9
				c0.1,0.2,0.4,0.5,0.6,0.6c0.2,0.1,0.6,0.2,1.1,0.4v0.1h-4V22c0.4-0.1,0.7-0.2,0.8-0.4c0.2-0.1,0.4-0.4,0.6-0.6
				c0.1-0.2,0.2-0.6,0.2-0.9c0.1-0.4,0.1-0.8,0.1-1.3c0-0.5,0-0.9,0-1.5c0-0.6,0-1.3,0-1.9c0-0.4,0-0.6,0-0.7s0-0.4,0-0.6
				c0-0.2,0-0.4,0-0.6c0-0.2,0-0.5,0-0.7c0-0.2-0.1-0.5-0.2-0.7c-0.1-0.2-0.2-0.4-0.4-0.5c-0.1-0.1-0.4-0.2-0.5-0.2
				c-0.1,0-0.4-0.1-0.5-0.1V11h3.3l3.7,8.4c0.5-0.9,0.9-2,1.3-3c0.5-0.9,0.8-1.9,1.2-2.6c0.4-0.8,0.6-1.4,0.8-2
				c0.2-0.5,0.4-0.8,0.4-0.9h3.3V11c-0.5,0-0.7,0.1-0.9,0.2c-0.2,0.1-0.4,0.4-0.5,0.6c-0.1,0.1-0.1,0.5-0.1,0.8c0,0.4,0,0.7,0,1.1
				c0,0.5,0,0.9,0,1.4c0,0.5,0,0.9,0,1.4c0,0.6,0,1.1,0,1.7c0,0.6,0,1.2,0,1.8c0,0.2,0,0.4,0,0.6s0.1,0.4,0.1,0.5c0,0,0,0.1,0.1,0.1
				c0.1,0.1,0.1,0.1,0.2,0.2c0.1,0.1,0.2,0.1,0.5,0.2c0.2,0.1,0.4,0.1,0.7,0.1v0.4H101.9z"/>
			<path class="st0" d="M120.6,18.8c-0.4,0.7-0.7,1.3-1.3,1.8s-1.2,0.9-1.9,1.2c-0.7,0.2-1.4,0.5-2.3,0.5c-0.8,0-1.5-0.1-2.3-0.4
				c-0.7-0.2-1.3-0.7-1.9-1.2c-0.5-0.5-0.9-1.1-1.3-1.8c-0.4-0.7-0.5-1.4-0.5-2.3c0-0.9,0.1-1.7,0.5-2.4s0.7-1.3,1.3-1.8
				s1.2-0.8,1.9-1.2c0.7-0.2,1.5-0.4,2.3-0.4c0.8,0,1.7,0.1,2.4,0.5c0.7,0.4,1.3,0.7,1.8,1.3c0.5,0.5,0.8,1.2,1.1,1.8
				c0.2,0.7,0.4,1.4,0.4,2.1C121.1,17.3,121,18.1,120.6,18.8z M118.9,14.6c-0.1-0.6-0.4-1.2-0.7-1.8c-0.4-0.5-0.7-0.9-1.2-1.3
				c-0.5-0.4-1.1-0.5-1.8-0.5c-0.7,0-1.3,0.1-1.8,0.5c-0.5,0.4-0.9,0.7-1.2,1.3c-0.4,0.5-0.6,1.1-0.7,1.8c-0.1,0.7-0.2,1.3-0.2,2
				c0,0.7,0.1,1.4,0.2,2c0.1,0.7,0.4,1.2,0.7,1.8c0.4,0.5,0.7,0.9,1.2,1.2c0.5,0.4,1.1,0.5,1.7,0.5c0.7,0,1.2-0.1,1.7-0.5
				c0.5-0.4,0.8-0.7,1.2-1.3c0.4-0.5,0.6-1.1,0.7-1.8c0.1-0.7,0.2-1.3,0.2-2C119.2,15.9,119.1,15.3,118.9,14.6z"/>
			<path class="st0" d="M134.9,13.9c-0.1-0.2-0.2-0.4-0.2-0.6c-0.1-0.2-0.2-0.4-0.4-0.6c-0.1-0.1-0.2-0.4-0.4-0.5
				c-0.1-0.1-0.2-0.2-0.2-0.4c-0.2-0.2-0.5-0.4-0.7-0.4c-0.2-0.1-0.6-0.1-0.9-0.1c-0.2,0-0.4,0-0.5,0c-0.1,0-0.2,0-0.5,0
				c-0.1,0-0.2,0-0.5,0c-0.1,0-0.4,0-0.6,0c0,0.2,0,0.6,0,1.1c0,0.5,0,0.9,0,1.4s0,0.9,0,1.4c0,0.5,0,0.8,0,1.2v3.4
				c0,0.4,0,0.6,0,0.8s0.1,0.5,0.1,0.6c0.1,0.2,0.4,0.4,0.7,0.5c0.2,0.1,0.6,0.1,0.7,0.2v0.1h-5.1V22c0.2,0,0.5-0.1,0.8-0.1
				c0.2-0.1,0.5-0.2,0.7-0.5c0,0,0.1-0.1,0.1-0.2c0-0.1,0-0.2,0.1-0.4c0-0.1,0-0.4,0-0.5c0-0.1,0-0.4,0-0.5c0-0.1,0-0.4,0-0.6
				s0-0.5,0-0.8c0-0.2,0-0.6,0-0.9s0-0.6,0-0.8v-5.3c-0.2,0-0.4,0-0.6,0c-0.1,0-0.4,0-0.5,0c-0.1,0-0.2,0-0.5,0c-0.1,0-0.4,0-0.5,0
				c-0.4,0-0.7,0-0.9,0.1c-0.2,0.1-0.5,0.2-0.7,0.5c-0.1,0.1-0.2,0.2-0.2,0.4c-0.1,0.1-0.2,0.4-0.4,0.5c-0.1,0.1-0.2,0.4-0.4,0.6
				c-0.1,0.2-0.2,0.4-0.2,0.6h-0.1l0.5-3c0.2,0,0.5,0.1,0.7,0.1s0.5,0,0.8,0.1c0.4,0,0.7,0,1.1,0s0.6,0,0.9,0c0.2,0,0.6,0,0.8,0
				c0.4,0,0.7,0,1.1,0s0.7,0,1.1,0s0.6,0,0.9,0c0.2,0,0.6,0,0.9,0s0.7,0,1.1,0s0.6,0,0.8-0.1c0.2,0,0.5-0.1,0.7-0.2l0.5,3.1
				L134.9,13.9z"/>
			<path class="st0" d="M137.2,22.2V22c0.2,0,0.5-0.1,0.7-0.2c0.2-0.1,0.4-0.2,0.6-0.4c0-0.1,0.1-0.1,0.1-0.2c0-0.1,0-0.2,0.1-0.4
				c0-0.1,0-0.4,0-0.5c0-0.1,0-0.4,0-0.5c0-0.1,0-0.4,0-0.6s0-0.5,0-0.8c0-0.2,0-0.6,0-0.9s0-0.6,0-0.9v-3.1c0-0.2,0-0.4,0-0.6
				c0-0.2,0-0.4,0-0.5c0-0.1,0-0.4-0.1-0.5c0-0.1-0.1-0.2-0.1-0.4c-0.1-0.1-0.4-0.4-0.6-0.4c-0.2,0-0.5-0.1-0.7-0.1V11h4.6v0.1
				c-0.2,0-0.5,0.1-0.7,0.1c-0.2,0.1-0.5,0.2-0.6,0.5c-0.1,0.1-0.1,0.4-0.1,0.7c0,0.2,0,0.5,0,0.7c0,0.2,0,0.5,0,0.7s0,0.5,0,0.7
				c0,0.2,0,0.5,0,0.8c0,0.2,0,0.6,0,0.8v3.6c0,0.4,0,0.6,0,0.8s0,0.5,0.1,0.6c0.1,0.1,0.4,0.4,0.6,0.4c0.2,0.1,0.5,0.1,0.7,0.1v0.5
				H137.2z"/>
			<path class="st0" d="M155.3,18.8c-0.4,0.7-0.7,1.3-1.3,1.8c-0.6,0.5-1.2,0.9-1.9,1.2s-1.4,0.5-2.3,0.5s-1.5-0.1-2.3-0.4
				c-0.7-0.2-1.3-0.7-1.9-1.2c-0.5-0.5-0.9-1.1-1.3-1.8s-0.5-1.4-0.5-2.3c0-0.9,0.1-1.7,0.5-2.4s0.7-1.3,1.3-1.8
				c0.6-0.5,1.2-0.8,1.9-1.2c0.7-0.2,1.5-0.4,2.3-0.4c0.8,0,1.7,0.1,2.4,0.5c0.7,0.4,1.3,0.7,1.8,1.3c0.5,0.5,0.8,1.2,1.1,1.8
				c0.2,0.7,0.4,1.4,0.4,2.1C155.8,17.3,155.5,18.1,155.3,18.8z M153.5,14.6c-0.1-0.6-0.4-1.2-0.7-1.8c-0.4-0.5-0.7-0.9-1.2-1.3
				s-1.1-0.5-1.8-0.5c-0.7,0-1.3,0.1-1.8,0.5c-0.5,0.4-0.9,0.7-1.2,1.3c-0.4,0.5-0.6,1.1-0.7,1.8c-0.1,0.7-0.2,1.3-0.2,2
				c0,0.7,0.1,1.4,0.2,2c0.1,0.7,0.4,1.2,0.7,1.8c0.4,0.5,0.7,0.9,1.2,1.2c0.5,0.2,1.1,0.5,1.7,0.5c0.7,0,1.2-0.1,1.7-0.5
				c0.5-0.4,0.8-0.7,1.2-1.3c0.4-0.5,0.6-1.1,0.7-1.8c0.1-0.7,0.2-1.3,0.2-2C153.8,15.9,153.8,15.3,153.5,14.6z"/>
			<path class="st0" d="M169.6,11.5c-0.2,0.1-0.4,0.4-0.6,0.7c-0.1,0.1-0.1,0.5-0.1,0.8c0,0.5,0,0.8-0.1,1.3c0,0.5,0,0.9,0,1.5
				s0,1.3,0,1.9c0,0.2,0,0.6,0,0.9s0,0.7,0,1.1s0,0.7,0,1.2c0,0.4,0,0.7,0,1.1v0.1h-0.1c-0.1,0-0.1,0-0.2-0.1
				c-0.8-1.1-1.7-1.9-2.4-2.8c-0.7-0.8-1.4-1.7-2-2.5c-0.7-0.8-1.3-1.5-1.9-2.3c-0.6-0.7-1.3-1.5-2-2.3v6.5c0,0.5,0,0.9,0,1.4
				s0.1,0.7,0.2,0.9c0.1,0.2,0.2,0.5,0.6,0.6c0.2,0.1,0.6,0.2,0.9,0.2v0.2h-3.8V22c0.2,0,0.5-0.1,0.7-0.2c0.2-0.1,0.5-0.2,0.6-0.5
				c0.1-0.2,0.2-0.6,0.2-0.9c0-0.5,0.1-0.9,0.1-1.5c0-0.5,0-0.9,0-1.5c0-0.6,0-1.3,0-1.9c0-0.4,0-0.6,0-0.7c0-0.2,0-0.4,0-0.6
				c0-0.2,0-0.4,0-0.6c0-0.2,0-0.5,0-0.7c0-0.4-0.1-0.6-0.2-0.7c-0.1-0.2-0.2-0.4-0.4-0.5c-0.1-0.1-0.4-0.2-0.5-0.2
				c-0.2,0-0.4-0.1-0.5-0.1V11h3.2l7.3,8.6v-5.3c0-0.4,0-0.8,0-1.2c0-0.4,0-0.7-0.1-0.9c-0.1-0.2-0.2-0.5-0.6-0.7
				c-0.2-0.2-0.6-0.4-1.2-0.4V11h3.9v0.1C170.1,11.1,169.9,11.3,169.6,11.5z"/>
		</g>
		<g>
			<g>
				<path class="st0" d="M68.8,30.6v7.6h-0.5v-7.6H68.8z"/>
				<path class="st0" d="M69,38.3h-0.9v-8H69V38.3z M68.6,37.9L68.6,37.9l0.1-7.2h-0.1V37.9z"/>
			</g>
			<g>
				<path class="st0" d="M78.2,38.1h-0.5l-4.5-6.9v6.9h-0.5v-7.6h0.5l4.5,6.8v-6.8h0.5V38.1z"/>
				<path class="st0" d="M78.4,38.3h-0.8l-0.1-0.1l-4.1-6.3v6.4h-0.9v-8h0.8l4.2,6.3v-6.3h0.9V38.3z M77.9,37.9L77.9,37.9l0.1-7.2
					h-0.1V37.9z M77.8,37.9L77.8,37.9l-4.1-6.2L77.8,37.9z M73,37.9L73,37.9l0.1-7.2H73V37.9z"/>
			</g>
			<g>
				<path class="st0" d="M86.4,30.6v0.4h-2.1v7.2h-0.5v-7.2h-2.1v-0.4H86.4z"/>
				<path class="st0" d="M84.4,38.3h-0.9v-7.2h-2.1v-0.8h5.1v0.8h-2.1V38.3z M84,37.9L84,37.9l0.1-7.2H84V37.9z"/>
			</g>
			<g>
				<path class="st0" d="M90.3,30.9v3.2h3.1v0.4h-3.1v3.2h3.3V38h-3.9v-7.6h3.9v0.4h-3.3V30.9z"/>
				<path class="st0" d="M93.8,38.2h-4.3v-8h4.3V31h-3.3v2.9h3.1v0.8h-3.1v2.8h3.3V38.2z M89.9,37.8h0.2v-7.2h-0.2V37.8z"/>
			</g>
			<g>
				<path class="st0" d="M101.4,38.1l-2-3.2l0,0h-1.7v3.2h-0.5v-7.6h2.1c0.8,0,1.5,0.2,1.9,0.6c0.5,0.4,0.6,0.9,0.6,1.5
					s-0.1,1.1-0.5,1.4c-0.4,0.4-0.8,0.6-1.4,0.7l2,3.3H101.4z M97.7,34.5h1.7c0.7,0,1.2-0.1,1.5-0.5c0.4-0.4,0.5-0.7,0.5-1.3
					c0-1.2-0.7-1.8-2-1.8h-1.7C97.7,30.9,97.7,34.5,97.7,34.5z"/>
				<path class="st0" d="M102.4,38.3h-1.1l-2-3.2h-1.3v3.2h-0.9v-8h2.3c0.9,0,1.6,0.2,2,0.7c0.4,0.3,0.7,0.9,0.7,1.7
					c0,0.7-0.2,1.2-0.5,1.6c-0.3,0.3-0.7,0.6-1.2,0.7L102.4,38.3z M101.5,37.9h0.1l-2-3.3l0.2,0c-0.1,0-0.3,0-0.4,0h-1.9v-3.9h-0.1
					v7.2h0.1v-3.2h2L101.5,37.9z M97.9,34.3h1.5c0.7,0,1.1-0.1,1.4-0.4c0.3-0.3,0.4-0.6,0.4-1.2c0-1.1-0.6-1.6-1.8-1.6h-1.5V34.3z
					 M100.8,31.1c0.5,0.3,0.8,0.9,0.8,1.6c0,0.7-0.1,1.1-0.5,1.4c0,0,0,0,0,0c0.1-0.1,0.1-0.1,0.2-0.2c0.3-0.3,0.4-0.7,0.4-1.3
					c0-0.7-0.2-1.1-0.5-1.4C101.1,31.2,101,31.1,100.8,31.1z"/>
			</g>
			<g>
				<path class="st0" d="M106,30.6v7.6h-0.5v-7.6H106z"/>
				<path class="st0" d="M106.2,38.3h-0.9v-8h0.9V38.3z M105.8,37.9L105.8,37.9l0.1-7.2h-0.1V37.9z"/>
			</g>
			<g>
				<path class="st0" d="M111.5,37.7c-0.6-0.4-0.9-0.8-1.3-1.4c-0.4-0.6-0.5-1.3-0.5-2c0-0.7,0.1-1.4,0.5-2c0.4-0.6,0.7-1.1,1.3-1.4
					c0.6-0.4,1.2-0.5,1.9-0.5c0.7,0,1.3,0.1,1.9,0.5c0.6,0.4,0.9,0.8,1.3,1.4c0.4,0.6,0.5,1.3,0.5,2c0,0.7-0.1,1.4-0.5,2
					s-0.7,1.1-1.3,1.4c-0.6,0.4-1.2,0.5-1.9,0.5C112.7,38.3,112.1,38,111.5,37.7z M115,37.3c0.5-0.2,0.8-0.7,1.2-1.2
					c0.2-0.5,0.5-1.2,0.5-1.8c0-0.7-0.1-1.3-0.5-1.8c-0.2-0.5-0.7-0.9-1.2-1.2c-0.5-0.2-1.1-0.5-1.7-0.5s-1.2,0.1-1.7,0.5
					c-0.5,0.2-0.8,0.7-1.2,1.2c-0.2,0.5-0.5,1.2-0.5,1.8c0,0.7,0.1,1.3,0.5,1.8c0.2,0.5,0.7,0.9,1.2,1.2c0.5,0.2,1.1,0.5,1.7,0.5
					S114.6,37.7,115,37.3z"/>
				<path class="st0" d="M113,38.4c-0.6,0-1.2-0.3-1.6-0.5c-0.6-0.4-1-0.9-1.4-1.5c-0.3-0.6-0.5-1.3-0.5-2.1c0-0.8,0.2-1.6,0.5-2.1
					c0.4-0.6,0.8-1.1,1.4-1.5c0.6-0.3,1.2-0.5,2-0.5s1.4,0.2,2,0.5c0.6,0.4,1,0.9,1.4,1.5c0.3,0.6,0.5,1.3,0.5,2.1
					c0,0.8-0.2,1.6-0.5,2.1c-0.4,0.6-0.8,1.1-1.4,1.5c-0.6,0.3-1.2,0.5-2,0.5C113.2,38.4,113.1,38.4,113,38.4z M111.2,37.2
					c0.1,0.1,0.3,0.2,0.4,0.3l0,0c0.4,0.3,0.9,0.5,1.5,0.5c-0.4,0-0.9-0.2-1.5-0.5C111.5,37.4,111.3,37.3,111.2,37.2z M115.1,37.5
					c-0.1,0.1-0.2,0.1-0.3,0.2C115,37.6,115.1,37.6,115.1,37.5c0.4-0.2,0.7-0.5,1-0.9C115.8,37,115.5,37.3,115.1,37.5z M113.4,31.1
					c-0.6,0-1.2,0.1-1.5,0.4c-0.5,0.2-0.8,0.7-1.1,1.1c-0.2,0.4-0.4,1.1-0.4,1.7c0,0.7,0.1,1.3,0.4,1.7c0.2,0.5,0.7,0.9,1.1,1.1
					c0.6,0.3,1.1,0.5,1.6,0.5c0.6,0,1.2-0.1,1.5-0.4l0,0c0.4-0.2,0.8-0.7,1.1-1.1c0.2-0.4,0.4-1.1,0.4-1.7c0-0.7-0.1-1.3-0.4-1.7
					c-0.2-0.5-0.7-0.9-1.1-1.1C114.3,31.3,113.8,31.1,113.4,31.1z M113.4,30.5c-0.7,0-1.3,0.1-1.8,0.4c-0.6,0.3-0.9,0.8-1.2,1.4
					c-0.2,0.4-0.4,0.8-0.4,1.4c0.1-0.5,0.3-0.9,0.4-1.2c0.4-0.5,0.8-1,1.3-1.3c0.4-0.3,1-0.5,1.7-0.5c0.5,0,1.1,0.2,1.7,0.5
					c0.5,0.3,1,0.8,1.3,1.3c0.1,0.2,0.2,0.4,0.3,0.6c-0.1-0.3-0.2-0.6-0.3-0.8c-0.4-0.6-0.7-1-1.2-1.4
					C114.6,30.7,114.1,30.5,113.4,30.5z"/>
			</g>
			<g>
				<path class="st0" d="M124.9,38.1l-2-3.2l0,0h-1.7v3.2h-0.5v-7.6h2.1c0.8,0,1.5,0.2,1.9,0.6c0.5,0.4,0.6,0.9,0.6,1.5
					s-0.1,1.1-0.5,1.4s-0.8,0.6-1.4,0.7l2,3.3H124.9z M121.2,34.5h1.7c0.7,0,1.2-0.1,1.5-0.5c0.4-0.4,0.5-0.7,0.5-1.3
					c0-1.2-0.7-1.8-2-1.8h-1.7C121.2,30.9,121.2,34.5,121.2,34.5z"/>
				<path class="st0" d="M125.8,38.3h-1.1l-2-3.2h-1.3v3.2h-0.9v-8h2.3c0.9,0,1.6,0.2,2,0.7c0.4,0.3,0.7,0.9,0.7,1.7
					c0,0.7-0.2,1.2-0.5,1.6c-0.3,0.3-0.7,0.6-1.2,0.7L125.8,38.3z M125,37.9h0.1l-2-3.3l0.2,0c-0.1,0-0.3,0-0.4,0H121v-3.9h-0.1v7.2
					h0.1v-3.2h2L125,37.9z M121.4,34.3h1.5c0.7,0,1.1-0.1,1.4-0.4c0.3-0.3,0.4-0.6,0.4-1.2c0-1.1-0.6-1.6-1.8-1.6h-1.5V34.3z
					 M124.3,31.1c0.5,0.3,0.8,0.9,0.8,1.6c0,0.7-0.1,1.1-0.5,1.4c0,0,0,0,0,0c0.1-0.1,0.1-0.1,0.2-0.2c0.3-0.3,0.4-0.7,0.4-1.3
					c0-0.7-0.2-1.1-0.5-1.4C124.5,31.2,124.4,31.1,124.3,31.1z"/>
			</g>
			<g>
				<path class="st0" d="M129.8,37.9c-0.4-0.1-0.7-0.4-0.8-0.7c-0.2-0.4-0.4-0.6-0.4-0.9h0.5c0,0.4,0.2,0.7,0.6,1.1
					c0.4,0.4,0.8,0.5,1.4,0.5c0.4,0,0.7-0.1,0.9-0.2c0.2-0.1,0.5-0.4,0.6-0.6c0.1-0.2,0.2-0.5,0.2-0.8s-0.1-0.7-0.2-0.8
					c-0.2-0.2-0.4-0.4-0.7-0.5c-0.2-0.1-0.6-0.2-1.1-0.4c-0.5-0.1-0.8-0.2-1.2-0.4c-0.4-0.1-0.6-0.4-0.7-0.6
					c-0.2-0.2-0.4-0.6-0.4-1.1c0-0.4,0.1-0.7,0.2-0.9c0.2-0.4,0.5-0.6,0.8-0.7c0.4-0.1,0.7-0.2,1.2-0.2c0.7,0,1.2,0.1,1.7,0.5
					c0.4,0.4,0.7,0.7,0.7,1.2h-0.4c0-0.2-0.1-0.4-0.2-0.6c-0.1-0.2-0.4-0.4-0.6-0.5c-0.2-0.1-0.6-0.2-0.9-0.2
					c-0.5,0-0.9,0.1-1.3,0.5c-0.4,0.2-0.5,0.6-0.5,1.1c0,0.4,0.1,0.7,0.2,0.8c0.2,0.2,0.4,0.4,0.7,0.5c0.2,0.1,0.6,0.2,1.1,0.4
					c0.5,0.1,0.9,0.2,1.2,0.4c0.2,0.1,0.6,0.4,0.7,0.6c0.2,0.2,0.4,0.6,0.4,1.1c0,0.4-0.1,0.7-0.2,0.9c-0.2,0.4-0.5,0.6-0.8,0.7
					c-0.4,0.2-0.8,0.2-1.3,0.2C130.7,38.3,130.3,38.1,129.8,37.9z"/>
				<path class="st0" d="M130.7,38.4c-0.3,0-0.6-0.1-0.9-0.3c-0.5-0.2-0.8-0.5-0.9-0.8c-0.2-0.4-0.4-0.6-0.4-1V36h0.9v0.2
					c0,0.3,0.2,0.6,0.5,0.9c0.3,0.3,0.7,0.4,1.3,0.4c0.4,0,0.8-0.2,0.9-0.2c0.2-0.1,0.4-0.3,0.5-0.5c0.1-0.2,0.2-0.4,0.2-0.7
					c0-0.3-0.1-0.6-0.2-0.7c-0.2-0.2-0.3-0.3-0.6-0.4c-0.3-0.1-0.6-0.2-1.1-0.4c-0.5-0.1-0.9-0.2-1.2-0.4c-0.4-0.1-0.6-0.4-0.8-0.7
					c-0.3-0.3-0.4-0.7-0.4-1.2c0-0.5,0.2-0.9,0.3-1c0.2-0.3,0.5-0.7,0.9-0.8c0.4-0.1,0.7-0.2,1.2-0.2c0.8,0,1.3,0.1,1.8,0.5
					c0.4,0.4,0.8,0.8,0.8,1.3v0.2h-0.8v-0.2c0-0.1,0-0.2-0.1-0.3c0-0.1-0.1-0.1-0.1-0.2c-0.1-0.2-0.3-0.3-0.5-0.4
					c-0.1-0.1-0.5-0.2-0.9-0.2c-0.5,0-0.9,0.1-1.2,0.4c-0.3,0.2-0.4,0.5-0.4,0.9c0,0.3,0.1,0.6,0.2,0.7c0.2,0.2,0.3,0.3,0.6,0.4
					c0.2,0.1,0.6,0.2,1.1,0.4c0.5,0.1,1,0.2,1.2,0.4c0.3,0.1,0.6,0.4,0.8,0.7c0.3,0.3,0.4,0.7,0.4,1.2c0,0.5-0.2,0.9-0.3,1
					c-0.2,0.3-0.5,0.6-0.9,0.8c-0.4,0.2-0.9,0.3-1.4,0.3C131.1,38.3,130.9,38.4,130.7,38.4z M128.9,36.4c0,0.2,0.1,0.4,0.3,0.6l0,0
					c0.1,0.2,0.3,0.5,0.7,0.6l0,0c0.3,0.1,0.5,0.2,0.7,0.2c-0.4-0.1-0.8-0.2-1.1-0.5C129.2,37.1,129,36.8,128.9,36.4L128.9,36.4z
					 M130.5,30.8c-0.3,0-0.5,0.1-0.7,0.2c-0.3,0.1-0.5,0.3-0.7,0.6c-0.1,0.2-0.2,0.6-0.2,0.8c0,0.4,0.1,0.7,0.3,0.9l0,0.1
					c0.1,0.2,0.3,0.4,0.6,0.5c0.3,0.1,0.7,0.2,1.2,0.4c0.5,0.1,0.9,0.2,1.1,0.4c0.4,0.1,0.5,0.3,0.8,0.5c0.2,0.2,0.3,0.6,0.3,1
					c0,0.4-0.1,0.7-0.3,0.9c-0.1,0.3-0.4,0.5-0.7,0.7c0,0,0,0-0.1,0c0.1,0,0.2-0.1,0.4-0.1l0,0c0.3-0.1,0.5-0.3,0.7-0.6
					c0-0.1,0.2-0.4,0.2-0.8c0-0.4-0.1-0.7-0.3-0.9l0-0.1c-0.1-0.2-0.4-0.4-0.6-0.5c-0.2-0.1-0.7-0.2-1.1-0.3
					c-0.5-0.1-0.9-0.3-1.1-0.4c-0.4-0.1-0.5-0.3-0.8-0.5c-0.2-0.2-0.3-0.6-0.3-1c0-0.4,0.1-0.9,0.6-1.2
					C129.9,31,130.2,30.9,130.5,30.8z"/>
			</g>
		</g>
	</g>
</g>
</svg>
